<?xml version="1.0" encoding="UTF-8"?>
<svg width="48px" height="48px" viewBox="0 0 48 48" version="1.1" xmlns="http://www.w3.org/2000/svg" xmlns:xlink="http://www.w3.org/1999/xlink">
  <style>
    .solid {
      fill: #1B1E2E;
    }
    .gradient-left {
      fill: url(#linearGradient-3);
    }
    .gradient-right {
      fill: url(#linearGradient-1);
    }
    @media (prefers-color-scheme: dark) {
      .solid {
        fill: white;
      }
      .gradient-left {
        fill: url(#linearGradient-2);
      }
      .gradient-right {
        fill: url(#linearGradient-1);
      }
    }
  </style>
  <path d="M0.854023,30.3588 C0.288116,28.2979 0,26.1573 0,24.0013 C0,14.1592 6.18126,5.16 15.3824,1.61121 L16.5888,4.73343 C8.66867,7.78884 3.34915,15.5314 3.34915,24.0013 C3.34915,25.8592 3.59608,27.6991 4.08225,29.4722 L0.854023,30.3588 Z" fill="#58D09E"></path>
  <path d="M22.854023,21.9588 C22.288116,19.8979 22,17.7573 22,15.6013 C22,5.7592 28.18126,-3.24 37.3824,-6.78879 L38.5888,-3.66657 C30.66867,-0.61116 25.34915,7.1314 25.34915,15.6013 C25.34915,17.4592 25.59608,19.2991 26.08225,21.0722 L22.854023,21.9588 Z" fill="#58D09E" transform="translate(30.294400, 7.585005) rotate(84.000000) translate(-30.294400, -7.585005) "></path>
  <path d="M53.4508,35.7933 C49.8702,28.91925 42.8221,24.64836 35.0614,24.64836 C32.3116,24.64836 29.639,25.17772 27.1233,26.21846 L25.8397,23.12707 C28.7644,21.916732 31.8666,21.3 35.0614,21.3 C44.0774,21.3 52.2624,26.25958 56.4219,34.2463 L53.4508,35.7933 Z" class="gradient-right" transform="translate(41.130800, 28.546650) rotate(85.000000) translate(-41.130800, -28.546650) "></path>
  <path d="M16.877,19.0494 C18.819,19.0494 20.401,20.085 21.2139,21.8915 L21.2782,22.0329 L24.5398,20.9253 L24.4704,20.7583 C23.2074,17.6823 20.2981,15.7704 16.877,15.7704 C14.4718,15.7704 12.5169,16.5414 10.9015,18.1243 C9.29634,19.697 8.48352,21.6757 8.48352,24.0064 C8.48352,26.3166 9.29634,28.285 10.9015,29.8577 C12.5169,31.4407 14.4718,32.2116 16.877,32.2116 C20.2981,32.2116 23.2074,30.2997 24.4704,27.2263 L24.5398,27.0593 L21.273,25.9491 L21.2113,26.0956 C20.4833,27.8713 18.8628,28.9326 16.877,28.9326 C15.5239,28.9326 14.3818,28.4598 13.4763,27.5295 C12.5606,26.5864 12.0976,25.4018 12.0976,24.009 C12.0976,22.6059 12.5503,21.4444 13.4763,20.4576 C14.3792,19.5223 15.5239,19.0494 16.877,19.0494 Z" class="solid"></path>
  <polygon class="solid" points="37.3061 16.0737 32.658 27.8353 27.979 16.0737 24.1514 16.0737 30.7133 32.1268 26.0446 43.449 29.3912 44.1146 40.9228 16.0737"></polygon>
  <path d="M26.6434,41.9894 L25.828,43.963 C25.6659,44.3536 25.2955,44.6182 24.8788,44.6362 C24.6036,44.6465 24.3258,44.6542 24.0454,44.6542 C14.4481,44.6491 5.95693,37.883 3.85278,28.56 L0.585938,29.2975 C1.76663,34.5269 4.72994,39.2732 8.93051,42.6653 C13.18,46.0958 18.5329,47.9897 24.0094,48 C24.0171,48 24.0582,48 24.0582,48 C24.3798,48 24.6987,47.9923 25.0177,47.9795 C26.736,47.9075 28.2717,46.8308 28.9276,45.235 L29.9925,42.655 L26.6434,41.9894 Z" class="gradient-left"></path>
  <defs>
    <linearGradient x1="21.9670266%" y1="36.369289%" x2="81.6909836%" y2="66.6208586%" id="linearGradient-1">
      <stop stop-color="#58D09E" offset="9.39%"></stop>
      <stop stop-color="#58D09E" stop-opacity="0" offset="98.83%"></stop>
    </linearGradient>
    <linearGradient x1="-2.86451031%" y1="42.449893%" x2="115.797494%" y2="63.3291929%" id="linearGradient-2">
      <stop stop-color="#58D09E" offset="7.74%"></stop>
      <stop stop-color="#FFFFFF" offset="76.17%"></stop>
    </linearGradient>
    <linearGradient x1="6.31992886%" y1="44.0659508%" x2="87.5203387%" y2="58.3536558%" id="linearGradient-3">
      <stop stop-color="#58D09E" offset="0%"></stop>
      <stop stop-color="#1B1E2E" offset="100%"></stop>
    </linearGradient>
  </defs>
</svg>
