<svg width="119" height="48" viewBox="0 0 119 48" fill="none" xmlns="http://www.w3.org/2000/svg">
<path d="M0.854084 30.3588C0.288177 28.2979 6.10352e-05 26.1573 6.10352e-05 24.0013C6.10352e-05 14.1592 6.18132 5.16 15.3825 1.61121L16.5889 4.73343C8.66873 7.78884 3.34921 15.5314 3.34921 24.0013C3.34921 25.8592 3.59614 27.6991 4.08231 29.4722L0.854084 30.3588Z" fill="white"/>
<path d="M42.4509 14.4933C38.8702 7.61925 31.8221 3.34836 24.0615 3.34836C21.3117 3.34836 18.6391 3.87772 16.1233 4.91846L14.8398 1.82707C17.7645 0.616732 20.8667 0 24.0615 0C33.0774 0 41.2625 4.95958 45.4219 12.9463L42.4509 14.4933Z" fill="url(#paint0_linear_2239_3584)"/>
<path d="M16.877 19.0494C18.8191 19.0494 20.4011 20.085 21.2139 21.8915L21.2782 22.0329L24.5399 20.9253L24.4704 20.7583C23.2074 17.6823 20.2982 15.7704 16.877 15.7704C14.4719 15.7704 12.5169 16.5414 10.9015 18.1243C9.29641 19.697 8.48359 21.6757 8.48359 24.0064C8.48359 26.3166 9.29641 28.285 10.9015 29.8577C12.5169 31.4407 14.4719 32.2116 16.877 32.2116C20.2982 32.2116 23.2074 30.2997 24.4704 27.2263L24.5399 27.0593L21.2731 25.9491L21.2113 26.0956C20.4834 27.8713 18.8628 28.9326 16.877 28.9326C15.524 28.9326 14.3819 28.4598 13.4764 27.5295C12.5607 26.5864 12.0977 25.4018 12.0977 24.009C12.0977 22.6059 12.5504 21.4444 13.4764 20.4576C14.3793 19.5223 15.524 19.0494 16.877 19.0494Z" fill="white"/>
<path d="M57.0693 18.1269C55.5645 16.5645 53.6867 15.7704 51.4848 15.7704C49.2983 15.7704 47.4977 16.5491 46.1292 18.0832V16.0737H42.6052V37.9703H46.1292V29.8988C47.4977 31.433 49.2957 32.2116 51.4848 32.2116C53.6867 32.2116 55.567 31.4175 57.0718 29.8526C58.5534 28.2799 59.302 26.314 59.302 24.0064C59.2994 21.6757 58.5509 19.6996 57.0693 18.1269ZM54.3066 27.5244C53.4037 28.4572 52.259 28.9275 50.9086 28.9275C49.5375 28.9275 48.4263 28.4675 47.508 27.5244C46.5923 26.5813 46.1292 25.3967 46.1292 24.0039C46.1292 22.57 46.5794 21.4084 47.508 20.4525C48.4237 19.5068 49.535 19.0494 50.9086 19.0494C52.2616 19.0494 53.4037 19.5223 54.3066 20.4525C55.2146 21.3879 55.6545 22.5494 55.6545 24.0039C55.6545 25.4378 55.212 26.589 54.3066 27.5244Z" fill="white"/>
<path d="M65.0382 17.9599V16.0737H61.5141V31.9058H65.0382V22.9734C65.0382 21.5421 65.6143 20.4474 66.7513 19.7201C67.8805 18.998 69.2362 18.8644 70.8953 19.3167L71.1088 19.3758V15.9889L70.9776 15.958C68.75 15.4261 66.5147 16.1919 65.0382 17.9599Z" fill="white"/>
<path d="M80.2508 15.7704C77.928 15.7704 75.9576 16.5619 74.3936 18.1243C72.8091 19.7073 72.0065 21.686 72.0065 24.0064C72.0065 26.3166 72.8194 28.285 74.4245 29.8577C76.0399 31.4407 77.9949 32.2116 80.4 32.2116C83.6591 32.2116 86.4603 30.5567 87.8957 27.7839L87.978 27.6246L84.9967 26.3038L84.9246 26.4451C84.0603 28.1154 82.4012 29.1125 80.4926 29.1125C78.0129 29.1125 76.1145 27.5989 75.6 25.2373H88.3844L88.3998 25.0857C88.6776 22.5314 88.0191 20.3163 86.4475 18.4995C84.8835 16.6878 82.7974 15.7704 80.2508 15.7704ZM75.7055 22.4106C76.3306 20.2495 78.0952 18.867 80.2508 18.867C82.4655 18.867 84.2301 20.2495 84.8012 22.4106H75.7055Z" fill="white"/>
<path d="M97.8147 22.4954C95.8931 22.1357 94.234 21.8222 94.234 20.4859C94.234 19.4246 95.3632 18.6845 96.9787 18.6845C98.7613 18.6845 99.7387 19.4503 99.9677 21.0255L99.9934 21.2029L103.517 20.4654L103.492 20.306C103.018 17.5076 100.523 15.7679 96.9812 15.7679C95.2038 15.7679 93.699 16.2279 92.5106 17.135C91.2964 18.037 90.6817 19.2139 90.6817 20.6375C90.6817 22.6984 91.9884 24.2454 94.1826 24.7748C94.751 24.9084 95.353 25.0163 95.9343 25.1243C98.1182 25.5226 100.181 25.9003 100.181 27.3702C100.181 28.5035 98.8642 29.2924 96.9812 29.2924C95.0649 29.2924 94.0077 28.5266 93.7479 26.9488L93.7196 26.774L90.1981 27.5116L90.2264 27.6734C90.7382 30.513 93.2617 32.209 96.9787 32.209C98.8667 32.209 100.485 31.7388 101.781 30.8137C103.078 29.8988 103.734 28.7193 103.734 27.3085C103.734 23.6081 100.454 22.9914 97.8147 22.4954Z" fill="white"/>
<path d="M113.081 22.4954C111.16 22.1357 109.501 21.8222 109.501 20.4859C109.501 19.4246 110.63 18.6845 112.245 18.6845C114.028 18.6845 115.005 19.4503 115.234 21.0255L115.26 21.2029L118.784 20.4654L118.758 20.306C118.285 17.5076 115.79 15.7679 112.248 15.7679C110.47 15.7679 108.966 16.2279 107.777 17.135C106.563 18.037 105.948 19.2139 105.948 20.6375C105.948 22.6984 107.255 24.2454 109.449 24.7748C110.018 24.9084 110.62 25.0163 111.201 25.1243C113.385 25.5226 115.448 25.9003 115.448 27.3702C115.448 28.5035 114.131 29.2924 112.248 29.2924C110.331 29.2924 109.274 28.5266 109.014 26.9488L108.986 26.774L105.465 27.5116L105.493 27.6734C106.005 30.513 108.528 32.209 112.245 32.209C114.133 32.209 115.751 31.7388 117.048 30.8137C118.344 29.8988 119 28.7193 119 27.3085C119 23.6081 115.72 22.9914 113.081 22.4954Z" fill="white"/>
<path d="M37.3062 16.0737L32.6581 27.8353L27.979 16.0737H24.1514L30.7134 32.1268L26.0446 43.449L29.3912 44.1146L40.9229 16.0737H37.3062Z" fill="white"/>
<path d="M26.6434 41.9894L25.828 43.963C25.666 44.3536 25.2956 44.6182 24.8788 44.6362C24.6036 44.6465 24.3258 44.6542 24.0454 44.6542C14.4482 44.6491 5.95697 37.883 3.85283 28.56L0.585983 29.2975C1.76667 34.5269 4.72998 39.2732 8.93056 42.6653C13.18 46.0958 18.533 47.9897 24.0094 48C24.0171 48 24.0583 48 24.0583 48C24.3798 48 24.6988 47.9923 25.0177 47.9795C26.736 47.9075 28.2717 46.8308 28.9277 45.235L29.9926 42.655L26.6434 41.9894Z" fill="url(#paint1_linear_2239_3584)"/>
<defs>
<linearGradient id="paint0_linear_2239_3584" x1="21.5577" y1="-1.54942" x2="39.8227" y2="17.9723" gradientUnits="userSpaceOnUse">
<stop offset="0.0939" stop-color="white"/>
<stop offset="0.9883" stop-color="white" stop-opacity="0"/>
</linearGradient>
<linearGradient id="paint1_linear_2239_3584" x1="-0.25637" y1="34.9215" x2="34.638" y2="44.2092" gradientUnits="userSpaceOnUse">
<stop offset="0.0774" stop-color="white"/>
<stop offset="0.7617" stop-color="white"/>
</linearGradient>
</defs>
</svg>
