<?xml version="1.0" encoding="utf-8"?>
<!-- Cypress logomark, white + color. Cleaned for build use (removed Illustrator
     raster <image> fallback and off-canvas artboard duplicate). -->
<svg version="1.1" xmlns="http://www.w3.org/2000/svg" xmlns:xlink="http://www.w3.org/1999/xlink" x="0px" y="0px"
	 viewBox="0 0 963 961.4" xml:space="preserve">
<style type="text/css">
	.st0{fill:#FFFFFF;}
	.st2{fill:#69D3A7;}
</style>
<g>
	<path class="st0" d="M340.4,382.8c38.4,0,69.6,20.5,85.6,56.1l1.2,2.8l64.4-21.9l-1.3-3.3c-24.9-60.8-82.4-98.5-149.9-98.5
		c-47.5,0-86.1,15.2-118,46.5c-31.7,31.1-47.7,70.2-47.7,116.2c0,45.7,16.1,84.6,47.7,115.6c31.9,31.3,70.5,46.5,118,46.5
		c67.5,0,124.9-37.8,149.9-98.5l1.3-3.3l-64.5-21.9L426,522c-14.4,35.1-46.4,56-85.6,56c-26.7,0-49.3-9.3-67.1-27.7
		c-18.1-18.6-27.2-42.1-27.2-69.6c0-27.7,8.9-50.7,27.2-70.2C291.2,392.1,313.7,382.8,340.4,382.8z"/>
	<g>

			<linearGradient id="SVGID_00000046319717966458416970000015607462967221361851_" gradientUnits="userSpaceOnUse" x1="992.9913" y1="483.7015" x2="568.87" y2="758.3036">
			<stop  offset="8.142510e-02" style="stop-color:#69D3A7"/>
			<stop  offset="1" style="stop-color:#69D3A7;stop-opacity:0"/>
		</linearGradient>
		<path style="fill:url(#SVGID_00000046319717966458416970000015607462967221361851_);" d="M620,934.4l-19.2-63.3
			C774,818.5,890.4,661.6,890.4,480.7c0-49.9-8.9-98.7-26.5-144.9l61.8-23.5c20.5,53.8,30.9,110.4,30.9,168.5
			C956.5,690.9,821.3,873.2,620,934.4z"/>
	</g>
	<g>
		<path class="st2" d="M872.5,361.1c-52.9-172.6-210-288.5-391-288.5c-24.6,0-49.2,2.2-73.2,6.5L396.6,14c27.8-5,56.4-7.6,84.9-7.6
			c210.2,0,392.7,134.7,454.2,335.2L872.5,361.1z"/>
	</g>
	<polygon class="st0" points="743.7,324 652,556.4 559.6,324 484,324 613.6,641.2 519.2,870.2 585.3,883.4 815.1,324 	"/>

		<linearGradient id="SVGID_00000100373257584267226060000002155254387837733269_" gradientUnits="userSpaceOnUse" x1="533.2401" y1="903.2662" x2="86.9093" y2="46.6224">
		<stop  offset="6.132909e-02" style="stop-color:#FFFFFF"/>
		<stop  offset="0.138" style="stop-color:#DEF5EC"/>
		<stop  offset="0.2374" style="stop-color:#BAEBD7"/>
		<stop  offset="0.3427" style="stop-color:#9DE2C5"/>
		<stop  offset="0.4536" style="stop-color:#86DBB8"/>
		<stop  offset="0.573" style="stop-color:#76D7AE"/>
		<stop  offset="0.7067" style="stop-color:#6CD4A9"/>
		<stop  offset="0.8842" style="stop-color:#69D3A7"/>
	</linearGradient>
	<path style="fill:url(#SVGID_00000100373257584267226060000002155254387837733269_);" d="M531.1,841.4l-13.9,33.7
		c-3.2,7.7-10.5,13-18.7,13.3c-5.7,0.2-11.3,0.4-17.1,0.4c-170.8,0-324-107.6-383.1-265.3c-0.9-2.4-1.8-4.8-2.6-7.2
		c-0.2-0.6-0.4-1.3-0.7-1.9c-0.7-2.2-1.5-4.3-2.2-6.5c-0.3-0.8-0.5-1.6-0.8-2.5c-0.6-2-1.3-3.9-1.9-5.9c-0.3-1-0.6-2-0.9-3
		c-11.1-37.4-16.7-76.3-16.7-115.9c0-210.8,158.3-385.4,368.1-406.1l-6.5-65.8C190.4,32.8,6.5,235.7,6.5,480.7
		c0,44.6,6.2,88.5,18.3,130.9l0,0c0,0,0,0.1,0,0.1c0.8,2.9,1.7,5.7,2.6,8.6c0.1,0.4,0.2,0.8,0.4,1.2c0.8,2.7,1.7,5.4,2.6,8.1
		c0.2,0.5,0.3,0.9,0.5,1.4c0.9,2.7,1.8,5.4,2.8,8.1c0.1,0.4,0.3,0.7,0.4,1.1c0.9,2.6,1.9,5.2,2.8,7.7l0,0
		c69,182.5,246.5,306.9,444.4,307c0,0,0,0,0,0c0,0,0.1,0,0.1,0v0c6.6,0,13.2-0.1,19.8-0.4c33.9-1.4,64.2-22.7,77.2-54.2l18.8-45.7
		L531.1,841.4z"/>
</g>
</svg>
