<svg width="194" height="186" viewBox="0 0 194 186" fill="none" xmlns="http://www.w3.org/2000/svg">
<path d="M189.83 73.7303L189.56 73.0403L163.42 4.82032C162.888 3.48324 161.946 2.349 160.73 1.58032C159.513 0.824706 158.093 0.460777 156.662 0.537673C155.232 0.614569 153.859 1.12859 152.73 2.01032C151.613 2.91737 150.803 4.14646 150.41 5.53032L132.76 59.5303H61.2899L43.6399 5.53032C43.2571 4.13892 42.4453 2.90367 41.3199 2.00032C40.1907 1.11858 38.8181 0.604567 37.3875 0.527671C35.9569 0.450775 34.5371 0.814704 33.3199 1.57032C32.1062 2.3421 31.1653 3.47535 30.6299 4.81032L4.43991 73.0003L4.17991 73.6903C0.416933 83.5224 -0.0475445 94.3113 2.8565 104.43C5.76055 114.549 11.8757 123.45 20.2799 129.79L20.3699 129.86L20.6099 130.03L60.4299 159.85L80.1299 174.76L92.1299 183.82C93.5336 184.886 95.2475 185.463 97.0099 185.463C98.7723 185.463 100.486 184.886 101.89 183.82L113.89 174.76L133.59 159.85L173.65 129.85L173.75 129.77C182.135 123.429 188.236 114.537 191.136 104.432C194.035 94.3266 193.577 83.553 189.83 73.7303Z" fill="#E24329"/>
<path d="M189.83 73.73L189.56 73.04C176.823 75.6545 164.82 81.0496 154.41 88.84L97 132.25C116.55 147.04 133.57 159.89 133.57 159.89L173.63 129.89L173.73 129.81C182.127 123.469 188.238 114.572 191.141 104.458C194.045 94.3435 193.585 83.5599 189.83 73.73Z" fill="#FC6D26"/>
<path d="M60.4299 159.89L80.1299 174.8L92.1299 183.86C93.5336 184.926 95.2475 185.503 97.0099 185.503C98.7723 185.503 100.486 184.926 101.89 183.86L113.89 174.8L133.59 159.89C133.59 159.89 116.55 147 96.9999 132.25C77.4499 147 60.4299 159.89 60.4299 159.89Z" fill="#FCA326"/>
<path d="M39.5799 88.84C29.1778 81.0335 17.1779 75.6243 4.43991 73L4.17991 73.69C0.416933 83.5221 -0.0475445 94.311 2.8565 104.43C5.76055 114.549 11.8757 123.45 20.2799 129.79L20.3699 129.86L20.6099 130.03L60.4299 159.85C60.4299 159.85 77.4299 147 96.9999 132.21L39.5799 88.84Z" fill="#FC6D26"/>
</svg>
